<?xml version="1.0" encoding="utf-8"?>
<!-- Uploaded to: SVG Repo, www.svgrepo.com, Generator: SVG Repo Mixer Tools -->
<svg fill="#ff00cc" version="1.2" baseProfile="tiny" id="Layer_1" xmlns="http://www.w3.org/2000/svg" xmlns:xlink="http://www.w3.org/1999/xlink"
	  viewBox="0 0 256 256" xml:space="preserve">
<g>
	<rect x="41.9" y="46.9" width="31.4" height="31.4"/>
	<path d="M16,119.5v26.3h22.5v104.6h178.1V145.7H240v-26.3H16z M127.9,241.4c-26.1,0-47.2-21.2-47.2-47.2
		c0-26.1,21.2-47.2,47.2-47.2c26.1,0,47.2,21.2,47.2,47.2C175.1,220.2,154,241.4,127.9,241.4z"/>
	<path d="M127.9,46.5c11.5,0,20.5-9.2,20.5-20.5c0-11.5-9.2-20.5-20.5-20.5c-11.5,0-20.5,9.2-20.5,20.5
		C107.4,37.4,116.5,46.5,127.9,46.5z"/>
	<polygon points="200.3,46.9 184.7,78.3 216.1,78.3 	"/>
	<path d="M43.1,106.2h37c2.9,0,6.5-1,8.6-4.2l14.2-20.1v32.5h50.7V81.9l14.2,20.1c2.1,3.1,5.6,4.2,8.6,4.2h37
		c11.7,0,12.5-18.2-0.4-18.2h-32.2l-18.5-27c-5.4-7.7-11.7-11.1-20.3-11.1h-27.4c-8.8,0-15,3.5-20.3,11.1L75.3,87.9h-32
		C30.4,87.9,31,106.2,43.1,106.2z"/>
	<path d="M107.4,187.1c4.6,0,7.7-3.6,7.7-7.7c0-4.6-3.6-7.7-7.7-7.7c-4.4,0-7.7,3.6-7.7,7.7C99.3,183.7,103,187.1,107.4,187.1z"/>
	<path d="M148.5,171.5c-4.6,0-7.7,3.4-7.7,7.7c-0.1,4.5,3.5,7.7,7.7,7.7s7.7-3.4,7.7-7.7C156.3,174.8,152.8,171.5,148.5,171.5z"/>
	<path d="M150.5,200.5c-2-0.7-4.6,0-5.5,2.4c-2.9,6.8-9.9,11.4-17.2,11.4c-7.6,0-14.6-4.6-17.8-11.4c-0.9-2.4-3.4-3.4-5.5-2.4
		c-2.4,0.9-3.4,3.4-2.4,5.5c4.6,10.2,14.5,16.7,25.4,16.7c10.6,0,20.9-6.6,25.4-16.7C153.7,204,152.9,201.4,150.5,200.5z"/>
</g>
</svg>