<svg version="1.2" xmlns="http://www.w3.org/2000/svg" viewBox="0 0 160 160" width="160" height="160"><style>.a{fill:#555564}.b{fill:#f3d5a3}.c{fill:#eec68f}.d{fill:#f6dfb2}.e{fill:#54b6df}.f{fill:#62617b}.g{fill:#c65f4b}</style><path fill-rule="evenodd" class="a" d="m50.5 73.7l4.2 18.8c0.3 1.1 1.2 1.8 2.3 1.8h5v-18.3zm48.2 2.3v18.3h5c1.1 0 2-0.7 2.3-1.8l4.2-18.8z"/><path class="b" d="m55.1 102.9c5.2-3.3 4.6-13.2 4.6-15.5h41.3c0 2.3-0.7 12.2 4.5 15.5l-25.2 28.1z"/><path class="c" d="m96.4 112.7l9.1-9.8c-5.2-3.3-4.5-13.2-4.5-15.5h-41.3c3 8.6 22.6 23.2 36.7 25.3z"/><path class="d" d="m112.4 57.6c0 18.4-10.5 41.3-32.1 41.3-21.5 0-32.1-22.9-32.1-41.3 0-18.3 14.4-25.2 32.1-25.2 17.8 0 32.1 6.9 32.1 25.2z"/><path class="e" d="m133.1 160c3.8 0 6.9-3 6.9-6.8v-23.7c0-10.1-7.9-20.8-17.5-23.9l-14.4-4.6c-7.7 5.9-18.7 14-27.8 14-9 0-20-8.1-27.8-14l-14.3 4.6c-9.6 3.1-17.5 13.8-17.5 23.9v23.7c0 3.8 3.1 6.8 6.9 6.8z"/><path class="f" d="m39.1 160h82.5v-54.7l-13.5-4.3c-7.7 5.9-18.7 14-27.8 14-9 0-20-8.1-27.8-14l-13.4 4.3z"/><path class="g" d="m73.5 119.5l3.6 3.7c1.8 1.8 4.7 1.8 6.5 0l5.9-5.9-9.2-2.3z"/><path class="a" d="m64.3 18.6c20.1-13.7 60.9-1.7 48.1 43.6l-6.8-6.9c0 0-25.6-6.1-48.2-18.3"/><path fill-rule="evenodd" class="e" d="m59 95.8c-0.9-0.8-2.3-0.8-3.1 0.1l-5.4 5.3 16.8 23.1c0.8 1.1 2.5 1.2 3.5 0.2l9.5-9.5zm21.3 19.2l9.6 9.5c1 1 2.7 0.9 3.5-0.2l16.8-23.1-5.4-5.3c-0.8-0.9-2.2-0.9-3.1-0.1z"/><path fill-rule="evenodd" class="d" d="m49.3 62.2c-3.4-0.8-5.6 1-5.6 4.6 0 4.8 4.6 16.5 9.4 9.2 4.9-7.3-3.8-13.8-3.8-13.8zm57.4 13.8c5.3 7.3 10.3-4.4 10.3-9.2 0-3.6-2.4-5.4-6.2-4.6 0 0-9.4 6.5-4.1 13.8z"/><path class="a" d="m48.2 62.2c0.8 2.3 2.3 4.6 2.3 4.6 0 0 13.4-17.2 13.8-29.8 0.4-12.6-2.3-11.5-2.3-11.5l4.6-2.3c0 0 8-3.5-2.3-4.6-14.4-1.4-27.5 9-16.1 43.6z"/><path fill-rule="evenodd" class="a" d="m77.5 60.5v1.7c0 6.3-5.2 11.5-11.5 11.5h-2.3c-3.8 0-6.9-3.1-6.9-6.9v-6.3c0-1.3 1.1-2.3 2.3-2.3h16.1c1.2 0 2.3 1 2.3 2.3zm-18.4 0v6.3c0 2.5 2.1 4.6 4.6 4.6h2.3c5.1 0 9.2-4.1 9.2-9.2v-1.7zm44.7 0v6.3c0 3.8-3.1 6.9-6.9 6.9h-2.3c-6.3 0-11.4-5.2-11.4-11.5v-1.7c0-1.3 1-2.3 2.2-2.3h16.1c1.3 0 2.3 1 2.3 2.3zm-18.4 0v1.7c0 5.1 4.2 9.2 9.2 9.2h2.3c2.5 0 4.6-2.1 4.6-4.6v-6.3z"/><path fill-rule="evenodd" class="a" d="m48.2 58.2h10.9v5.5l-10.9-2.7zm64.2 2.8l-10.9 2.7v-5.5h10.9zm-26.9 2.7h-2.2c0-1-1.4-1.9-3-1.9-1.6 0-2.9 0.9-2.9 1.9h-2.3c0-2.4 2.3-4.2 5.2-4.2 2.9 0 5.2 1.8 5.2 4.2z"/></svg>