<svg version="1.2" xmlns="http://www.w3.org/2000/svg" viewBox="0 0 160 160" width="160" height="160"><style>.a{fill:#f3d5a3}.b{fill:#eec68f}.c{fill:#f6dfb2}.d{fill:#e4e9ee}.e{fill:#555564}.f{fill:#d0d5da}</style><path class="a" d="m55.5 104.5c5.2-3.3 4.6-13.1 4.6-15.4h41.3c0 2.3-0.7 12.1 4.5 15.4l-25.2 28.2z"/><path class="b" d="m96.8 114.3l9.1-9.8c-5.2-3.3-4.5-13.1-4.5-15.4h-41.3c3 8.5 22.5 23.1 36.7 25.2z"/><path class="c" d="m112.8 59.3c0 18.4-10.5 41.3-32.1 41.3-21.5 0-32.1-22.9-32.1-41.3 0-18.4 14.4-25.2 32.1-25.2 17.8 0 32.1 6.8 32.1 25.2z"/><path class="d" d="m133.5 160.2c3.8 0 6.9-3.1 6.9-6.9v-22.1c0-10.1-7.9-20.9-17.5-23.9l-14.4-4.6c-7.7 5.9-18.7 13.9-27.8 13.9-9 0-20-8-27.8-13.9l-14.3 4.6c-9.6 3-17.5 13.8-17.5 23.9v22.1c0 3.8 3.1 6.9 6.9 6.9z"/><path class="e" d="m67 20.3h-4.6c-8.9 0-16.1 7.3-16.1 16.1 0 8.3 2.3 22.9 2.3 22.9 0 0 2.6-11.6 13.8-16.1 6.8-2.7 4.6-22.9 4.6-22.9z"/><path class="e" d="m64.7 20.4c9.2-14.2 32.9-2.4 48.1-2.4 2.3 3.3 3.9 28.3 0 41.3l-6.8-11.5c0 0-21.1 7.8-43.6-4.5"/><path fill-rule="evenodd" class="f" d="m80.7 116.6l-11.4 11.5-18.4-25.2 5.4-5.4c0.8-0.8 2.2-0.9 3.1-0.1zm21.4-19.2c0.9-0.8 2.2-0.7 3.1 0.1l5.3 5.4-18.3 25.2-11.5-11.5z"/><path fill-rule="evenodd" class="e" d="m73.9 160.1h-34.4v-53.1l11.6-3.7zm36.5-56.8l11.6 3.7v53.1h-34.4zm-25.1 20.2c0 1.3-1 2.3-2.3 2.3h-4.6c-1.2 0-2.3-1-2.3-2.3v-4.6c0-1.2 1.1-2.3 2.3-2.3h4.6c1.3 0 2.3 1.1 2.3 2.3z"/><path fill-rule="evenodd" class="c" d="m49.7 63.9c-3.4-0.9-5.7 1-5.7 4.6 0 4.7 4.7 16.5 9.5 9.1 4.9-7.3-3.8-13.7-3.8-13.7zm57.4 13.7c5.3 7.4 10.3-4.4 10.3-9.1 0-3.6-2.4-5.5-6.2-4.6 0 0-9.4 6.4-4.1 13.7z"/><path fill-rule="evenodd" class="e" d="m48.4 64.4c-0.6-0.2-0.9-0.8-0.8-1.4 0.2-0.6 0.8-1 1.4-0.8l12.7 3.1c0.6-3 3.3-5.3 6.6-5.3 2.7 0 5 1.6 6.1 3.9 1.4-1.2 3.6-2 6.1-2 2.5 0 4.6 0.8 6.1 2 1-2.3 3.4-3.9 6.1-3.9 3.2 0 5.9 2.3 6.6 5.3l12.7-3.1c0.6-0.2 1.2 0.2 1.4 0.8 0.1 0.6-0.2 1.2-0.9 1.4l-13.1 3.3c-0.5 3.3-3.3 5.8-6.7 5.8-3.4 0-6.2-2.5-6.7-5.8q-0.1-0.1-0.1-0.3c0-1.8-2.5-3.2-5.4-3.2-3 0-5.5 1.4-5.5 3.2q0 0.2-0.1 0.3c-0.4 3.3-3.2 5.8-6.6 5.8-3.4 0-6.3-2.5-6.7-5.8zm19.8-2.1c-2.4 0-4.4 2-4.4 4.5 0 2.4 2 4.4 4.4 4.4 2.5 0 4.5-2 4.5-4.4 0-2.5-2-4.5-4.5-4.5zm24.4 0c-2.4 0-4.4 2-4.4 4.5 0 2.4 2 4.4 4.4 4.4 2.5 0 4.5-2 4.5-4.4 0-2.5-2-4.5-4.5-4.5z"/><path class="e" d="m83.6 123.3l-3.2 1.3-3.1-1.3-1.5 24.3h9.2z"/></svg>