<svg version="1.2" xmlns="http://www.w3.org/2000/svg" viewBox="0 0 160 160" width="160" height="160"><style>.a{fill:#555564}.b{fill:#323c4b}.c{fill:#d0d5da}.d{fill:#e4e9ee}.e{fill:#6e6e78}</style><path class="a" d="m122 105.9l-20.1-6c-1-2.3-1.3-5.1-1.4-7.4-0.1-1.2 0.3-2.3 1.1-3.1q1.2-1.6 2.3-3.2h-48.2q1.1 1.6 2.3 3.1c0.8 0.9 1.2 2 1.1 3.2-0.1 2.3-0.4 5.1-1.4 7.4l-20 6c-9.7 3.1-17.5 13.9-17.5 24v23.1c0 3.8 3.1 6.9 6.9 6.9h105.4c3.8 0 6.9-3.1 6.9-6.9v-23.1c0-10.1-7.8-20.9-17.4-24z"/><path class="b" d="m54.6 100.9c4.2 8.9 13.9 15.1 25.2 15.1 11.2 0 20.9-6.2 25.2-15.1l-0.8-0.3c-1.6-0.4-2.8-1.8-3.2-3.4-0.3-1.6-0.5-3.3-0.5-4.7-0.1-1.2 0.3-2.3 1.1-3.2q1.2-1.5 2.3-3.1h-48.2q1.1 1.6 2.3 3.1c0.8 0.9 1.2 2 1.1 3.2 0 1.4-0.2 3.1-0.6 4.7-0.3 1.6-1.5 3-3.1 3.4z"/><path class="c" d="m79.8 20.6c-18.2 0-32.9 13.8-32.9 30.8v12c0 17 14.7 37.7 32.9 37.7 18.2 0 32.9-20.7 32.9-37.7v-12c0-17-14.7-30.8-32.9-30.8z"/><path class="d" d="m47.5 69.4q0.6 3.3 1.8 6.7c7.2 5.2 23.3 8.9 30.5 8.9 7.2 0 23.3-3.7 30.5-8.9q1.2-3.4 1.8-6.7h-32.3z"/><path class="a" d="m46.9 51.4v12c0 4 0.8 8.1 2.3 12.2 20 7.2 41.3 7.2 61.2-0.1 1.5-4 2.3-8.1 2.3-12.1v-12c0-0.4 0-0.9-0.1-1.3h-65.6c-0.1 0.4-0.1 0.9-0.1 1.3z"/><path class="e" d="m79.8 50.1v30.9c10.3 0 20.6-1.8 30.6-5.5 1.5-4 2.3-8.1 2.3-12.1v-12c0-0.4 0-0.9-0.1-1.3z"/></svg>