<svg version="1.2" xmlns="http://www.w3.org/2000/svg" viewBox="0 0 160 160" width="160" height="160"><style>.a{fill:#df6955}.b{fill:#555564}.c{fill:#f3d5a3}.d{fill:#eec68f}.e{fill:#f6dfb2}.f{fill:#eaa988}.g{fill:#dd503c}</style><path class="a" d="m49.8 72.8c0 2.5-2.1 4.5-4.6 4.5h-2.3c-2.5 0-4.6-2-4.6-4.5v-6.9c0-2.5 2.1-4.6 4.6-4.6h2.3c2.5 0 4.6 2.1 4.6 4.6zm71.1 0c0 2.5-2.1 4.5-4.6 4.5h-2.3c-2.5 0-4.6-2-4.6-4.5v-6.9c0-2.5 2.1-4.6 4.6-4.6h2.3c2.5 0 4.6 2.1 4.6 4.6z"/><path class="b" d="m118.6 68.2h-4.6v-20.7c0-18.9-15.4-34.4-34.4-34.4-19 0-34.4 15.5-34.4 34.4v20.7h-4.6v-20.7c0-21.5 17.5-39 39-39 21.5 0 39 17.5 39 39z"/><path class="c" d="m54.4 104.3c5.1-3.3 4.6-13.2 4.6-15.5h41.2c0 2.3-0.6 12.2 4.5 15.5l-25.1 28.1z"/><path class="d" d="m95.6 114.1l9.1-9.8c-5.1-3.3-4.5-13.2-4.5-15.5h-41.2c2.9 8.5 22.5 23.2 36.6 25.3z"/><path class="e" d="m111.7 59c0 18.4-10.6 41.3-32.1 41.3-21.5 0-32.1-22.9-32.1-41.3 0-18.3 14.4-25.2 32.1-25.2 17.7 0 32.1 6.9 32.1 25.2z"/><path class="a" d="m132.3 159.9c3.8 0 6.9-3.1 6.9-6.9v-22.1c0-10.1-7.8-20.8-17.5-23.9l-14.3-4.6c-7.7 5.9-18.7 14-27.8 14-9.1 0-20.1-8.1-27.8-14l-14.4 4.6c-9.6 3.1-17.4 13.8-17.4 23.9v22.1c0 3.8 3.1 6.9 6.9 6.9z"/><path class="f" d="m111.7 17.7c-15.2 0-38.8-11.7-48.1 2.3h-2.4c-8.8 0-16 7.3-16 16.2 0 8.2 2.3 27.4 2.3 27.4 0 0 4.9-14.5 13.7-22.9 0.1 0 43.6 4.5 43.6 4.5l6.9 18.4c3.9-13.1 2.3-42.6 0-45.9z"/><path class="b" d="m52.1 77.3c0 2.6-2.1 4.6-4.6 4.6h-2.3c-2.5 0-4.6-2-4.6-4.6v-16c0-2.5 2.1-4.6 4.6-4.6h2.3c2.5 0 4.6 2.1 4.6 4.6zm66.5 0c0 2.6-2.1 4.6-4.6 4.6h-2.3c-2.5 0-4.6-2-4.6-4.6v-16c0-2.5 2.1-4.6 4.6-4.6h2.3c2.5 0 4.6 2.1 4.6 4.6z"/><path fill-rule="evenodd" class="b" d="m76.8 63.6v1.7c0 6.3-5.2 11.5-11.5 11.5h-2.3c-3.8 0-6.9-3.1-6.9-6.9v-6.3c0-1.3 1.1-2.3 2.3-2.3h16.1c1.3 0 2.3 1 2.3 2.3zm-18.4 0v6.3c0 2.5 2.1 4.6 4.6 4.6h2.3c5.1 0 9.2-4.1 9.2-9.2v-1.7zm44.7 0v6.3c0 3.8-3.1 6.9-6.9 6.9h-2.3c-6.3 0-11.4-5.2-11.4-11.5v-1.7c0-1.3 1-2.3 2.3-2.3h16c1.3 0 2.3 1 2.3 2.3zm-18.3 0v1.7c0 5.1 4.1 9.2 9.1 9.2h2.3c2.6 0 4.6-2.1 4.6-4.6v-6.3z"/><path fill-rule="evenodd" class="b" d="m47.5 61.3h10.9v5.4l-10.9-2.6zm64.3 2.8l-11 2.6v-5.4h11zm-26.9 2.6h-2.3c0-0.9-1.4-1.8-3-1.8-1.5 0-2.9 0.9-2.9 1.8h-2.3c0-2.3 2.3-4.1 5.2-4.1 3 0 5.3 1.8 5.3 4.1z"/><path fill-rule="evenodd" class="a" d="m114 45.1c-14 3.6-46.4 8.4-67.1-16.1 2.6-5.3 8.1-9 14.3-9h2.4c9.3-14 32.9-2.3 48.1-2.3 1.5 2.1 2.6 15 2.3 27.4zm-39.5 18.5v1.7c0 5.1-4.1 9.2-9.2 9.2h-2.3c-2.5 0-4.6-2.1-4.6-4.6v-6.3zm26.3 0v6.3c0 2.5-2 4.6-4.6 4.6h-2.3c-5 0-9.1-4.1-9.1-9.2v-1.7z"/><path fill-rule="evenodd" class="g" d="m42.9 159.9h-16c-3.8 0-6.9-3.1-6.9-6.9v-22.1c0-6.2 3-12.7 7.5-17.4l15.4 21.2zm73.4-25.2l15.4-21.2c4.5 4.7 7.5 11.2 7.5 17.4v22.1c0 3.8-3.1 6.9-6.9 6.9h-16zm-72.3-29.8l7.8-2.5c7.7 5.9 18.7 14 27.8 14 9.1 0 20.1-8.1 27.8-14l7.8 2.5c-11.8 8.9-24.2 18.3-35.6 18.3-11.4 0-23.8-9.4-35.6-18.3z"/><path class="f" d="m79.6 137c-12.7 0-22.9 10.2-22.9 22.9h45.8c0-12.7-10.2-22.9-22.9-22.9z"/></svg>